<svg xmlns="http://www.w3.org/2000/svg" viewBox="0 0 58.1 355"><defs><style>.cls-1{fill:#baa898;}</style></defs><title>arrows</title><g id="Layer_2" data-name="Layer 2"><g id="Layer_1-2" data-name="Layer 1"><path class="cls-1" d="M1.2,321.4A4,4,0,0,1,4,320.2a4,4,0,0,1,2.8,1.2L25,339.6V269a4,4,0,0,1,8,0v70.6l18.2-18.2a4,4,0,0,1,5.7,5.7L29,355,1.2,327.1a4,4,0,0,1,0-5.7Z"/><path class="cls-1" d="M1.2,56.4A4,4,0,0,1,4,55.2a4,4,0,0,1,2.8,1.2L25,74.6V4a4,4,0,0,1,8,0V74.6L51.2,56.4a4,4,0,0,1,5.7,5.7L29,90,1.2,62.1a4,4,0,0,1,0-5.7Z"/></g></g></svg>