<svg xmlns="http://www.w3.org/2000/svg" viewBox="0 0 296.36 281.97"><defs><style>.cls-1{fill:#fff;}</style></defs><title>logo</title><g id="Layer_2" data-name="Layer 2"><g id="Layer_1-2" data-name="Layer 1"><path class="cls-1" d="M295.95,40.55h0v0l-.22-5.26-2-1.16-2.61-1.49h0l-.24-.13h0C286.27,30,230.76,0,149.32,0h0C107.13,0,58,8.1,5.85,32.27L.74,34.65.33,40.29h0c0,.06,0,.4-.06.92C.17,42.9,0,46.63,0,52H0c0,20.71,2.45,65.87,21.8,112.2,9.69,23.16,23.66,46.62,43.8,67.21s46.42,38.2,80.21,49.6l2.69.91,2.78-.72h0l.15,0h0c3.17-.85,37.85-10.4,72.78-41.86h0A206,206,0,0,0,274,171c13.52-29.78,22.41-67,22.41-113.11h0v0C296.36,52.21,296.23,46.45,295.95,40.55Zm-18.73,17.3h0c0,43.66-8.39,78-20.7,105.23h0a185.49,185.49,0,0,1-69.2,80.42A175.8,175.8,0,0,1,158,258.71h0c-3.7,1.49-6.64,2.5-8.63,3.14l-.19.06C119.59,251.44,96.91,236,79.29,218.06,52.11,190.29,37,156.17,28.75,125.16a291.07,291.07,0,0,1-9.58-72.71v0h0v-.35h0c0-1.81,0-3.36.05-4.7,47.46-21,91.8-28.19,130.11-28.19h0a311.41,311.41,0,0,1,96.26,15.23h0a255.22,255.22,0,0,1,26.92,10.39h0c1.75.79,3.21,1.49,4.46,2.11.13,3.74.23,7.41.23,11h0Z"/><path class="cls-1" d="M206.33,149a35.85,35.85,0,0,0-1.53-10.68,28,28,0,0,0-4.77-9.12,28.74,28.74,0,0,0-7-6.23,29.46,29.46,0,0,0,3.93-3.93l0,0,.1-.14.05,0,.47-.72.66-.85-.05,0A26.59,26.59,0,0,0,203,102h0v-.27h0v-.93h0A31.42,31.42,0,0,0,199.64,87a28.89,28.89,0,0,0-9.09-10.35h0l-.05,0,0,0-.8-.5-.67-.47h0l-.06,0,0,0-.06,0h0c-6.23-4-13.67-6.06-22-6.58v-.17H107.21a32,32,0,0,1-6.67-.81s1,1.48,1.41,5.26v106c-.39,3.78-1.41,5.26-1.41,5.26a35.05,35.05,0,0,1,7.28-.83l55.51,0,0-.07c9.65-.29,18.16-2.18,25.34-5.92l.1.15,1.65-1.05.93-.51.81-.45-.07-.12a30.52,30.52,0,0,0,10.15-10.42,31.93,31.93,0,0,0,4.06-16v-.06h0V149ZM122.58,88h39.84c6.55,0,11.48,1.23,15.08,3.3h0a11.19,11.19,0,0,1,4.39,4.08h0a10.89,10.89,0,0,1,1.39,5.71,12,12,0,0,1-1.36,5.9,11.68,11.68,0,0,1-4.27,4.18c-3.66,2.21-8.69,3.53-15.41,3.53H122.58ZM185.2,155.8a13.51,13.51,0,0,1-5.05,4.77l-.22.13c-4.12,2.45-9.8,3.9-17.31,3.91h-40V133.78h39.55c7.76,0,13.61,1.35,17.64,3.53a13,13,0,0,1,5.31,4.81,13.42,13.42,0,0,1,1.71,7A13.12,13.12,0,0,1,185.2,155.8Z"/></g></g></svg>