<?xml version="1.0" encoding="utf-8"?>
<!-- Generator: Adobe Illustrator 19.1.0, SVG Export Plug-In . SVG Version: 6.00 Build 0)  -->
<svg version="1.1" id="Layer_1" xmlns="http://www.w3.org/2000/svg" xmlns:xlink="http://www.w3.org/1999/xlink" x="0px" y="0px"
	 width="624px" height="370px" viewBox="-407 536 624 370" style="enable-background:new -407 536 624 370;" xml:space="preserve">
<style type="text/css">
	.st0{fill:#282535;}
	.st1{opacity:0.1;}
	.st2{fill:url(#SVGID_1_);}
	.st3{fill:#292637;}
	.st4{fill:url(#SVGID_2_);}
	.st5{fill:#B9A899;}
</style>
<title>macbook</title>
<path class="st0" d="M169.4,854.3h-528.8c-6.3,0-11.4-5.1-11.4-11.4l0,0v-14.7l0,0h551.6l0,0v14.7
	C180.8,849.2,175.7,854.3,169.4,854.3L169.4,854.3z"/>
<g class="st1">
	
		<image style="overflow:visible;enable-background:new    ;" width="624" height="99" xlink:href="2E653E4C.png"  transform="matrix(1 0 0 1 -407 807)">
	</image>
	
		<linearGradient id="SVGID_1_" gradientUnits="userSpaceOnUse" x1="-95" y1="615.78" x2="-95" y2="589.74" gradientTransform="matrix(1 0 0 -1 0 1444)">
		<stop  offset="0" style="stop-color:#FFFFFF"/>
		<stop  offset="1" style="stop-color:#000000"/>
	</linearGradient>
	<path class="st2" d="M-370.8,828.2h551.6v14.7c0,6.3-5.1,11.4-11.4,11.4l0,0h-528.8c-6.3,0-11.4-5.1-11.4-11.4l0,0V828.2z"/>
</g>
<path class="st3" d="M128.4,551h-446.9c-6.4,0-11.6,5.2-11.6,11.6v265.6h21.5V572.5h427.1v255.7H140V562.6
	C140,556.2,134.8,551,128.4,551L128.4,551z M-94.8,564.3c-1.4,0-2.5-1.1-2.5-2.5c0-1.4,1.1-2.5,2.5-2.5c1.4,0,2.5,1.1,2.5,2.5
	c0,0,0,0,0,0C-92.3,563.2-93.4,564.3-94.8,564.3z"/>
<g class="st1">
	
		<image style="overflow:visible;opacity:0.75;enable-background:new    ;" width="500" height="308" xlink:href="2E653E4B.png"  transform="matrix(1 0 0 1 -345 536)">
	</image>
	
		<linearGradient id="SVGID_2_" gradientUnits="userSpaceOnUse" x1="-95" y1="893" x2="-95" y2="615.84" gradientTransform="matrix(1 0 0 -1 0 1444)">
		<stop  offset="0" style="stop-color:#FFFFFF"/>
		<stop  offset="1" style="stop-color:#000000"/>
	</linearGradient>
	<path class="st4" d="M128.4,551h-446.9c-6.4,0-11.6,5.2-11.6,11.6v265.6h21.5V572.5h427.1v255.7H140V562.6
		C140,556.2,134.8,551,128.4,551L128.4,551z M-94.8,564.3c-1.4,0-2.5-1.1-2.5-2.5c0-1.4,1.1-2.5,2.5-2.5c1.4,0,2.5,1.1,2.5,2.5
		c0,0,0,0,0,0C-92.3,563.2-93.4,564.3-94.8,564.3z"/>
</g>
<g id="zackies__x28_purple_x29_">
	<path class="st5" d="M-184.8,674.3h18.7l1.5,1.5v4.9c0,1.4-4.5,7.8-13.4,19.4v0.4l0.7,0.7h8.6c2,0,3,1.4,3,4.1c0,1.6-1,2.7-3,3.4
		l-2.6-0.4h-0.4l-14.9-0.4c-1-1-1.5-2.2-1.5-3.4c0-2.7,3.2-7.7,9.7-14.9c2.5-3.5,3.7-5.7,3.7-6.3h-0.7v-0.4l-1.9,0.4h-7.8
		c-1.7,0-2.6-0.9-2.6-2.6v-3.4C-187.8,675.3-186.8,674.3-184.8,674.3z"/>
	<path class="st5" d="M-149,672.3h1.1c6.6,0,11.1,3.1,13.4,9.3c0.7,1.2,1.1,3.4,1.1,6.7v2.6l0.4,12.7c0,1.5-1,2.4-3,2.6h-2.2
		c-0.7-0.1-1.5-1.3-2.2-3.7h-0.4c-2.9,4-6.7,6-11.2,6h-1.1c-7.2-0.9-10.8-4.4-10.8-10.5c0-3.5,3.2-6.8,9.7-9.7
		c4.1-1.2,8.2-1.9,12.3-1.9l0.4-1.1c0-3.6-2.2-5.8-6.7-6.7c-2.2,0-4.8,1.7-7.8,5.2h-3c-1.9,0-3-0.5-3.4-1.5v-0.7
		C-159.9,675.4-155.4,672.3-149,672.3z M-153.8,698.4v0.4c0.9,1.5,2,2.2,3.4,2.2h1.1c3.1,0,5.6-2.5,7.5-7.5l-0.7-1.1
		C-149.2,692.4-152.9,694.4-153.8,698.4z"/>
	<path class="st5" d="M-117.2,674.9h2.2c5.1,0,9.3,3,12.7,9v1.5l-1.5,1.5h-3.4c-1.1,0-3.2-1.7-6.3-5.2c-1.5-0.2-2.2-0.4-2.2-0.7
		c-4.5,0-7.1,3.7-7.8,11.2c0.7,6.5,3.2,9.7,7.5,9.7h1.9c1.5,0,3.6-1.6,6.3-4.9l1.5-0.4h1.9c1.9,0,3.2,0.6,3.7,1.9
		c-2.3,6.7-6.9,10.1-13.8,10.1h-1.9c-8.7,0-13.9-5.4-15.7-16.1c0-4.8,1.9-9.2,5.6-13.4C-123.6,676.2-120.5,674.9-117.2,674.9z"/>
	<path class="st5" d="M-96.7,670.4c3.7,0.2,5.6,1,5.6,2.6l-0.7,12h0.7l9.7-13.1h1.9c2.9,1.7,4.4,2.9,4.5,3.7c0,1-3.4,5.6-10.1,13.8
		c0,1,3.4,5.5,10.1,13.4v1.1c-1.5,2.3-3.1,3.6-4.9,4.1c-0.6,0-4.1-4-10.5-12h-0.4c-1.2,0.6-1.9,1.6-1.9,3v3.4c0,2.2-0.9,3.4-2.6,3.4
		h-3.4l-1.5-1.5v-10.1l0.4-1.5l-0.4-0.4l0.4-6.3v-13.8C-99,671-98,670.4-96.7,670.4z"/>
	<path class="st5" d="M-69.8,671.5h2.2c1.5,0.8,2.6,1.9,3.4,3.4v2.2c-0.7,3-2.2,4.5-4.5,4.5H-69c-3.5-0.4-5.2-2.2-5.2-5.2
		C-73.4,673.1-71.9,671.5-69.8,671.5z M-71.3,683.8h3.4c1.2,0,2.2,0.6,3,1.9l-0.4,8.2v11.9c0,1.7-0.9,2.6-2.6,2.6h-3.7l-1.5-1.9
		l0.4-5.6v-15.7L-71.3,683.8z"/>
	<path class="st5" d="M-48.1,673h2.2c7.2,0,12.3,4.1,15.3,12.3l0.4,4.9v1.1c-0.6,1.2-1.6,1.9-3,1.9l-18.7,0.4
		c-1.5,0.2-2.2,0.6-2.2,1.1v0.7c0,2.9,2.6,5,7.8,6.3c2.9,0,5.9-1.7,9-5.2h1.1c3.7,0,5.6,0.6,5.6,1.9v0.4c0,2.1-2.4,4.7-7.1,7.8
		c-2.1,1.2-4.6,1.9-7.5,1.9h-2.2c-8.1,0-13.3-4.2-15.7-12.7l-0.4-3v-1.9C-63.4,680.6-58.3,674.7-48.1,673z M-54.9,686.5l1.1,1.1h0.7
		l11.6-0.4l1.1,0.4c1-0.2,1.5-0.9,1.5-1.9c-2.1-4-4.3-6-6.7-6h-1.9C-50.7,679.7-53.2,682-54.9,686.5z"/>
	<path class="st5" d="M-17.5,673.8h2.2c9,1.2,13.4,5.4,13.4,12.7c0,1.3-0.6,2.3-1.9,3h-2.6c-2.5,0-3.7-2-3.7-6c-1.6-2-3.4-3-5.6-3
		H-16c-3.5,0.9-5.2,2.5-5.2,4.9c0,2.8,4,4.9,12,6.3c4.2,2,6.3,4.6,6.3,7.8c0,4.3-2,7.3-6,9l-4.5,1.1H-16c-6.4,0-10.5-3.1-12.3-9.3
		v-1.5c0.2-0.7,1-1.1,2.2-1.1h3c1.2,0,2.7,1.5,4.5,4.5l3.4,1.1h0.7c1.7,0,2.9-1,3.7-3c0-1.6-3.9-3.3-11.6-5.2
		c-4.7-2.3-7.1-5.8-7.1-10.5C-29.5,678.7-25.5,675.1-17.5,673.8z"/>
</g>
</svg>
