<svg xmlns="http://www.w3.org/2000/svg" viewBox="0 0 351.41 85.46"><defs><style>.cls-1{fill:#f4f4f4;}</style></defs><title>word-mark</title><g id="Layer_2" data-name="Layer 2"><g id="Layer_1-2" data-name="Layer 1"><path class="cls-1" d="M84.14,26.31H106.2V19.24H84.14V8.77h23.3V1.64H78.38a13.61,13.61,0,0,1-2.68-.33,4.72,4.72,0,0,1,.52,2V43.85a4.72,4.72,0,0,1-.52,2,14.36,14.36,0,0,1,2.75-.33h29.38V38.41H84.08V26.31Z"/><rect class="cls-1" x="53.38" y="1.64" width="7.85" height="43.91"/><polygon class="cls-1" points="150.11 29.38 120.2 0 120.2 45.55 128.05 45.55 128.05 17.93 157.96 47.18 157.96 1.64 150.11 1.64 150.11 29.38"/><polygon class="cls-1" points="189.24 30.23 176.48 1.64 168.1 1.64 189.24 47.45 210.38 1.64 202 1.64 189.24 30.23"/><rect class="cls-1" x="220.59" y="1.64" width="7.85" height="43.91"/><polygon class="cls-1" points="252 1.64 244.15 1.64 244.15 45.55 269.47 45.55 269.47 38.41 252 38.41 252 1.64"/><polygon class="cls-1" points="289.89 1.64 282.04 1.64 282.04 45.55 307.37 45.55 307.37 38.41 289.89 38.41 289.89 1.64"/><path class="cls-1" d="M327.72,38.41V26.31h22.05V19.24H327.72V8.77H351V1.64H322a13.61,13.61,0,0,1-2.68-.33,4.72,4.72,0,0,1,.52,2V43.85a4.72,4.72,0,0,1-.52,2,14.36,14.36,0,0,1,2.75-.33h29.38V38.41Z"/><path class="cls-1" d="M41.21,32.26a13.51,13.51,0,0,0-.59-4.06,10.34,10.34,0,0,0-4.52-5.82,16.34,16.34,0,0,0,1.51-1.51h0l.07-.07h0l.2-.26.26-.33h0A10.29,10.29,0,0,0,40,14.33h0v-.07h0v-.33h0A12.58,12.58,0,0,0,38.72,8.7a10.49,10.49,0,0,0-3.47-3.93h0l-.33-.2-.26-.2h0A17.52,17.52,0,0,0,26.22,1.9V1.64H3.32A12.17,12.17,0,0,1,.77,1.31a4.72,4.72,0,0,1,.52,2V43.85a4.72,4.72,0,0,1-.52,2,15.14,15.14,0,0,1,2.81-.33h21.2a22.48,22.48,0,0,0,9.69-2.29l.07.07.65-.39.33-.2.33-.2v-.07a11.26,11.26,0,0,0,3.86-4,12,12,0,0,0,1.57-6.15h0l-.07-.07ZM9.21,9H24.46a11.58,11.58,0,0,1,5.76,1.24h0a4,4,0,0,1,1.7,1.57h0a4.21,4.21,0,0,1,.52,2.16,4.13,4.13,0,0,1-.52,2.23,3.81,3.81,0,0,1-1.64,1.57,11.18,11.18,0,0,1-5.89,1.37H9.21ZM33.1,34.88a5.68,5.68,0,0,1-1.9,1.83l-.07.07a13,13,0,0,1-6.61,1.51H9.21V26.5H24.33a14,14,0,0,1,6.74,1.37,5.09,5.09,0,0,1,2,1.83,5.23,5.23,0,0,1,.65,2.68A5.56,5.56,0,0,1,33.1,34.88Z"/><path class="cls-1" d="M12,62.2a10.67,10.67,0,0,1,7,2.32V69.7a9.75,9.75,0,0,0-7-3,7,7,0,0,0-7.14,7.14,7,7,0,0,0,7.14,7,9.75,9.75,0,0,0,7-3v5.19a10.85,10.85,0,0,1-7,2.32c-6.67,0-12-4.91-12-11.59S5.38,62.2,12,62.2Z"/><path class="cls-1" d="M40.69,61.27,52.37,85H47.08l-1.76-3.61H36L34.2,85H28.92Zm2.78,15.94L40.6,71.28l-2.87,5.93Z"/><path class="cls-1" d="M63.3,62.57h9.45a7.61,7.61,0,0,1,7.6,7.6,7.69,7.69,0,0,1-7.6,7.6H68.22V85h-5V62.57Zm9.18,10.66a3.06,3.06,0,0,0,0-6.12H68.22v6.21h4.26Z"/><path class="cls-1" d="M92,62.57h5V85H92Z"/><path class="cls-1" d="M114.19,67h-6.12V62.57h17.05v4.54h-6v18h-5V67Z"/><path class="cls-1" d="M143.2,61.27,154.88,85h-5.28l-1.76-3.61h-9.36L136.71,85h-5.19ZM146,77.21l-2.87-5.93-2.87,5.93Z"/><path class="cls-1" d="M165.81,62.57h5v18h8.81v4.54H165.81Z"/></g></g></svg>